<svg xmlns="http://www.w3.org/2000/svg" width="107" height="107" viewBox="0 0 107 107" fill="#C49963">
  <path d="M98.1089 98.1089H107V107H98.1089V98.1089Z"/>
  <path d="M80.3333 89.2241H89.224V98.1091H80.3333V89.2241Z"/>
  <path d="M89.2241 80.3333H98.1101V89.224H89.2241V80.3333Z"/>
  <path d="M49.224 89.2242C27.1307 89.2242 9.224 71.3122 9.224 49.2242C9.224 27.1362 27.1307 9.2242 49.224 9.2242C71.3174 9.2242 89.224 27.1308 89.224 49.2242V71.4482H98.109V49.2242C98.109 22.2188 76.2242 0.333496 49.2242 0.333496C22.2242 0.333496 0.333496 22.2188 0.333496 49.2242C0.333496 76.2242 22.2188 98.1152 49.2242 98.1152H71.4482V89.2292L49.224 89.2242Z"/>
  <path d="M49.2241 18.1094C32.0414 18.1094 18.1147 32.0361 18.1147 49.2187C18.1147 66.4067 32.0361 80.3334 49.2241 80.3334H80.3334V49.2241C80.3334 32.0361 66.4067 18.1094 49.2241 18.1094ZM71.4428 71.4427H49.2241C36.9481 71.4427 27.0001 61.4949 27.0001 49.2241C27.0001 36.9481 36.9479 27.0001 49.2241 27.0001C61.5002 27.0001 71.4481 36.9479 71.4481 49.2241V71.4427H71.4428Z"/>
  <path d="M62.5573 49.224C62.5573 41.8594 56.5885 35.8906 49.224 35.8906C41.8594 35.8906 35.8906 41.8594 35.8906 49.224C35.8906 56.5885 41.8594 62.5573 49.224 62.5573H62.5573V49.224Z"/>
</svg>
